<svg width="14" height="14" viewBox="0 0 14 14" fill="none" xmlns="http://www.w3.org/2000/svg">
<path d="M13.4412 4.27356C12.7031 2.55178 11.4488 1.29958 9.7136 0.559117C8.84633 0.189035 7.93773 0 6.98849 0C6.03942 0 5.13752 0.18725 4.27121 0.559117C2.55038 1.29761 1.29054 2.54901 0.551124 4.27356C0.180605 5.13755 0 6.04272 0 6.99231C0 7.94209 0.180605 8.85476 0.551124 9.71893C1.29054 11.4435 2.55054 12.7024 4.27121 13.4411C5.13768 13.8129 6.0394 14 6.98849 14C7.93759 14 8.84633 13.811 9.71346 13.4411C11.4487 12.7006 12.7029 11.4406 13.4412 9.71893C13.8129 8.85199 14 7.94209 14 6.99231C14 6.04272 13.813 5.14048 13.4412 4.27356ZM12.3238 10.0866C11.7743 11.0295 11.0215 11.7775 10.0733 12.3305C9.13097 12.8803 8.09843 13.1576 6.98865 13.1576C6.15437 13.1576 5.35829 12.9968 4.60042 12.6674C3.84257 12.3382 3.18823 11.9054 2.64085 11.3579C2.09348 10.8102 1.65781 10.1491 1.33204 9.38955C1.00722 8.63274 0.849814 7.82723 0.849814 6.99233C0.849814 5.88179 1.12252 4.85392 1.66893 3.91364C2.21728 2.96993 2.97024 2.22111 3.91165 1.66966C4.8529 1.11823 5.87874 0.84243 6.98849 0.84243C8.09843 0.84243 9.13079 1.11986 10.0732 1.66966C11.0213 2.22274 11.7725 2.97153 12.3236 3.91362C12.8747 4.85554 13.1502 5.88179 13.1502 6.99231C13.1502 8.10288 12.8765 9.13775 12.3238 10.0866Z" fill="#1100D8"/>
<path d="M7.43239 6.93077V2.96355C7.43239 2.72615 7.22566 2.53467 6.98837 2.53467C6.76645 2.53467 6.56738 2.72615 6.56738 2.96355V6.99202C6.56738 6.99971 6.58273 7.03043 6.58273 7.05332C6.56738 7.1912 6.60577 7.30607 6.69755 7.39806L8.98634 9.68795C9.13949 9.84119 9.42265 9.84119 9.57569 9.68795C9.7517 9.51183 9.74012 9.25628 9.57569 9.09059L7.43239 6.93077Z" fill="#1100D8"/>
</svg>
