<svg width="18" height="18" viewBox="0 0 18 18" fill="none" xmlns="http://www.w3.org/2000/svg">
<path d="M9.98753 9.04511L17.798 1.19549C18.0673 0.924812 18.0673 0.473684 17.798 0.203008C17.5287 -0.0676692 17.0798 -0.0676692 16.8105 0.203008L9 8.05263L1.18953 0.203008C0.920199 -0.0676692 0.471322 -0.0676692 0.201995 0.203008C-0.0673317 0.473684 -0.0673317 0.924812 0.201995 1.19549L8.01247 9.04511L0.201995 16.8947C0.112219 16.985 0.0224439 17.1654 0.0224439 17.3459C0.0224439 17.5263 0.112219 17.7068 0.201995 17.797C0.471322 18.0677 0.920199 18.0677 1.18953 17.797L9 9.94737L16.8105 17.797C16.9002 17.8872 17.0798 17.9774 17.2594 17.9774C17.4389 17.9774 17.6185 17.8872 17.7082 17.797C17.9776 17.5263 17.9776 17.0752 17.7082 16.8045L9.98753 9.04511Z" fill="black"/>
</svg>
