<svg width="24" height="24" viewBox="0 0 24 24" fill="none" xmlns="http://www.w3.org/2000/svg">
<path d="M20.7656 0H3.23389C1.44792 0 0 1.44784 0 3.23389V20.7656C0 22.5518 1.44784 23.9995 3.23389 23.9995H11.8803L11.8953 15.4237H9.66704C9.37747 15.4237 9.14244 15.1895 9.14146 14.8999L9.13057 12.1353C9.12942 11.8444 9.36535 11.6076 9.65631 11.6076H11.8806V8.93648C11.8806 5.83673 13.7738 4.14886 16.539 4.14886H18.8082C19.0983 4.14886 19.3339 4.38422 19.3339 4.67461V7.00548C19.3339 7.29587 19.0986 7.53123 18.8085 7.53123L17.4158 7.53205C15.9121 7.53205 15.6207 8.24655 15.6207 9.29541V11.6079H18.9251C19.2402 11.6079 19.4844 11.8829 19.4472 12.1954L19.1195 14.9599C19.0883 15.2246 18.8639 15.4238 18.5975 15.4238H15.6356L15.6206 24H20.7655C22.5515 24 23.9994 22.552 23.9994 20.766V3.23389C23.9995 1.44792 22.5516 0 20.7656 0Z" fill="#0D47A1"/>
<path d="M11.8802 23.9994L11.8952 15.4236H11.8585V23.9994H11.8802Z" fill="#0D47A1"/>
</svg>
