<svg width="15" height="10" viewBox="0 0 15 10" fill="none" xmlns="http://www.w3.org/2000/svg">
<path d="M7.51882 5.99724H7.52203C7.63515 5.99724 7.74694 5.96452 7.83738 5.90495L7.86191 5.88924C7.86725 5.88577 7.87284 5.88262 7.87846 5.87888L8.16419 5.64322L14.9843 0.0327163C14.9701 0.0132917 14.9461 0 14.9205 0H0.0792402C0.0608333 0 0.04375 0.00664599 0.0301471 0.0178121L7.16556 5.88072C7.25549 5.95495 7.3838 5.99724 7.51882 5.99724ZM0 0.794991V9.1114L5.11152 4.99508L0 0.794991ZM9.89382 5.023L15 9.11353V0.82265L9.89382 5.023ZM8.27037 6.35815C8.06681 6.52463 7.80056 6.61641 7.52096 6.61641C7.24029 6.61641 6.97429 6.52517 6.77127 6.35947L5.60056 5.39693L0 9.90639V9.92074C0 9.96357 0.0368137 10 0.0802941 10H14.9208C14.9634 10 15 9.96357 15 9.92047V9.90718L9.40424 5.42515L8.27037 6.35815Z" fill="white"/>
</svg>
