<svg width="15" height="9" viewBox="0 0 15 9" fill="none" xmlns="http://www.w3.org/2000/svg">
<path d="M7.51882 5.39752H7.52203C7.63515 5.39752 7.74694 5.36807 7.83738 5.31446L7.86191 5.30032C7.86725 5.2972 7.87284 5.29436 7.87846 5.291L8.16419 5.0789L14.9843 0.0294447C14.9701 0.0119625 14.9461 0 14.9205 0H0.0792402C0.0608333 0 0.04375 0.0059814 0.0301471 0.0160309L7.16556 5.29264C7.25549 5.35945 7.3838 5.39752 7.51882 5.39752ZM0 0.715492V8.20026L5.11152 4.49557L0 0.715492ZM9.89382 4.5207L15 8.20218V0.740385L9.89382 4.5207ZM8.27037 5.72233C8.06681 5.87217 7.80056 5.95477 7.52096 5.95477C7.24029 5.95477 6.97429 5.87266 6.77127 5.72352L5.60056 4.85724L0 8.91576V8.92866C0 8.96721 0.0368137 9 0.0802941 9H14.9208C14.9634 9 15 8.96721 15 8.92842V8.91646L9.40424 4.88264L8.27037 5.72233Z" fill="#1100D8"/>
</svg>
