<svg width="10" height="14" viewBox="0 0 10 14" fill="none" xmlns="http://www.w3.org/2000/svg">
<path d="M4.99979 0C2.24304 0 0 2.31222 0 5.15429C0 5.89561 0.147192 6.60341 0.437266 7.25819C1.68735 10.078 4.08412 13.0552 4.78908 13.9004C4.8419 13.9636 4.9189 14 4.99993 14C5.08096 14 5.15796 13.9636 5.21078 13.9004C5.91547 13.0554 8.31223 10.0783 9.56273 7.25819C9.85295 6.60341 10 5.89561 10 5.15429C9.99972 2.31222 7.75668 0 4.99979 0ZM4.99979 7.83144C3.56777 7.83144 2.4026 6.63034 2.4026 5.15415C2.4026 3.67781 3.56777 2.47671 4.99979 2.47671C6.43182 2.47671 7.59698 3.67781 7.59698 5.15415C7.59712 6.63034 6.43196 7.83144 4.99979 7.83144Z" fill="white"/>
</svg>
