<svg width="23" height="20" viewBox="0 0 23 20" fill="none" xmlns="http://www.w3.org/2000/svg">
<path d="M22.6343 2.32636C22.1232 2.56338 21.5928 2.75027 21.0484 2.88548C21.6483 2.28977 22.0992 1.54441 22.3536 0.712664C22.4263 0.475315 22.1795 0.269798 21.9744 0.396963C21.217 0.866657 20.4013 1.2187 19.5498 1.44399C19.5005 1.45712 19.4497 1.46368 19.3984 1.46368C19.2431 1.46368 19.0927 1.40354 18.9738 1.29426C18.0679 0.459563 16.9027 -0.00012207 15.6929 -0.00012207C15.1692 -0.00012207 14.6408 0.0852024 14.122 0.253472C12.5142 0.774688 11.2735 2.16129 10.8841 3.87179C10.7382 4.5132 10.6988 5.15559 10.7667 5.78043C10.7743 5.8523 10.7421 5.90234 10.7221 5.92581C10.6867 5.96699 10.637 5.9907 10.5851 5.9907C10.5795 5.9907 10.5733 5.99046 10.5675 5.98988C7.04799 5.64793 3.87415 3.87548 1.63102 0.998663C1.51683 0.851889 1.29724 0.86994 1.20605 1.03329C0.76687 1.82139 0.534724 2.72246 0.534724 3.63945C0.534724 5.04459 1.07498 6.369 2.01306 7.33456C1.61854 7.23668 1.23666 7.08269 0.881844 6.8766C0.710129 6.777 0.499094 6.90531 0.496661 7.1105C0.472332 9.19808 1.64154 11.0557 3.39299 11.8921C3.35767 11.8929 3.32236 11.8933 3.28704 11.8933C3.00945 11.8933 2.72818 11.8655 2.45161 11.81C2.25832 11.7717 2.09594 11.9632 2.1559 12.1589C2.72457 14.0145 4.25267 15.3822 6.08158 15.6925C4.56384 16.7576 2.79614 17.3194 0.956636 17.3194L0.383257 17.3191C0.206283 17.3191 0.0567774 17.4397 0.0120434 17.6186C-0.0322982 17.7946 0.0492429 17.9806 0.200083 18.0723C2.27291 19.3334 4.63746 19.9999 7.03873 19.9999C9.14076 19.9999 11.107 19.564 12.8829 18.7038C14.511 17.9154 15.9496 16.7885 17.159 15.3542C18.2857 14.0181 19.1666 12.4758 19.7775 10.7698C20.3596 9.14401 20.6674 7.40873 20.6674 5.75254V5.67345C20.6674 5.40755 20.7824 5.15732 20.9833 4.98675C21.745 4.34009 22.4085 3.57907 22.9548 2.72467C23.0992 2.49922 22.8717 2.21634 22.6343 2.32636Z" fill="#0D47A1"/>
</svg>
